<svg xmlns="http://www.w3.org/2000/svg" viewBox="0 0 1440 320">
  <path fill="#3fa9f5" fill-opacity="1" d="M0,128L20,122.7C40,117,80,107,120,122.7C160,139,200,181,240,213.3C280,245,320,267,360,229.3C400,192,440,96,480,58.7C520,21,560,43,600,64C640,85,680,107,720,128C760,149,800,171,840,170.7C880,171,920,149,960,144C1000,139,1040,149,1080,181.3C1120,213,1160,267,1200,250.7C1240,235,1280,149,1320,144C1360,139,1400,213,1420,250.7L1440,288L1440,0L1420,0C1400,0,1360,0,1320,0C1280,0,1240,0,1200,0C1160,0,1120,0,1080,0C1040,0,1000,0,960,0C920,0,880,0,840,0C800,0,760,0,720,0C680,0,640,0,600,0C560,0,520,0,480,0C440,0,400,0,360,0C320,0,280,0,240,0C200,0,160,0,120,0C80,0,40,0,20,0L0,0Z"></path>
</svg>