<!--?xml version="1.0" encoding="UTF-8"?-->

<!-- Creator: CorelDRAW 2019 (64-Bit) -->
<svg xmlns="http://www.w3.org/2000/svg" xml:space="preserve" width="6.42613in" height="0.426307in" version="1.1" style="shape-rendering: geometricprecision; text-rendering: geometricprecision; fill-rule: evenodd; clip-rule: evenodd;" viewBox="0 0 7657.73 508.01" xmlns:xlink="http://www.w3.org/1999/xlink">
 <defs>
  <style type="text/css">
   
    .str0 {stroke:#0C2B6C;stroke-width:33.1;stroke-miterlimit:2.61313}
    .fil0 {fill:none;fill-rule:nonzero}
   
  </style>
 </defs>
 <g id="Layer_x0020_1">
  <metadata id="CorelCorpID_0Corel-Layer"></metadata>
  <path class="fil0 str0 DjVEspqR_0" d="M668.81 23.76l-110.7 463.12 -138.87 0 -74.02 -309.84 -74.68 309.84 -138.87 0 -110.71 -463.12 121.84 0 59.61 335.39 81.22 -335.39 122.5 0 81.22 335.39 60.26 -335.39 121.18 0zm170.97 89.08l0 96.95 156.56 0 0 84.5 -156.56 0 0 102.84 176.21 0 0 89.74 -288.22 0 0 -463.12 288.22 0 0 89.08 -176.21 0zm351.76 288.22l149.35 0 0 85.81 -261.36 0 0 -463.12 112.01 0 0 377.3zm412.68 -381.89c58.95,0 107.76,15.51 146.4,46.51 38.64,31.01 63.65,72.93 75,125.77l-118.57 0c-8.74,-21.4 -22.16,-38.21 -40.29,-50.44 -18.12,-12.23 -39.63,-18.34 -64.52,-18.34 -32.75,0 -59.17,12.01 -79.26,36.03 -20.09,24.02 -30.13,56.12 -30.13,96.29 0,40.18 10.04,72.17 30.13,95.97 20.09,23.8 46.51,35.7 79.26,35.7 24.89,0 46.4,-6.11 64.52,-18.34 18.12,-12.23 31.55,-28.82 40.29,-49.78l118.57 0c-11.36,52.4 -36.36,94.22 -75,125.44 -38.65,31.22 -87.45,46.84 -146.4,46.84 -44.98,0 -84.5,-9.94 -118.57,-29.81 -34.06,-19.87 -60.37,-47.71 -78.93,-83.52 -18.56,-35.81 -27.84,-76.64 -27.84,-122.5 0,-45.85 9.28,-86.68 27.84,-122.49 18.56,-35.81 44.87,-63.65 78.93,-83.52 34.07,-19.87 73.59,-29.81 118.57,-29.81zm504.39 -2.62c43.67,0 83.3,10.15 118.89,30.46 35.59,20.31 63.65,48.47 84.17,84.5 20.53,36.03 30.79,76.75 30.79,122.16 0,45.42 -10.37,86.25 -31.11,122.5 -20.74,36.25 -48.91,64.52 -84.5,84.83 -35.59,20.31 -75,30.46 -118.24,30.46 -43.23,0 -82.65,-10.15 -118.24,-30.46 -35.59,-20.31 -63.76,-48.58 -84.5,-84.83 -20.75,-36.25 -31.11,-77.08 -31.11,-122.5 0,-45.41 10.37,-86.14 31.11,-122.16 20.74,-36.03 48.91,-64.2 84.5,-84.5 35.59,-20.31 75,-30.46 118.24,-30.46zm0 104.15c-36.68,0 -65.83,11.9 -87.45,35.7 -21.61,23.8 -32.42,56.23 -32.42,97.27 0,40.61 10.81,72.93 32.42,96.95 21.62,24.02 50.77,36.03 87.45,36.03 36.25,0 65.29,-12.01 87.12,-36.03 21.83,-24.02 32.75,-56.33 32.75,-96.95 0,-40.61 -10.81,-72.93 -32.42,-96.95 -21.62,-24.02 -50.77,-36.03 -87.45,-36.03zm817.5 -93.67l0 459.84 -112.01 0 0 -287.56 -99.57 287.56 -96.95 0 -100.23 -288.22 0 288.22 -112.01 0 0 -459.84 136.9 0 125.11 320.32 122.49 -320.32 136.25 0zm189.31 85.81l0 96.95 156.56 0 0 84.5 -156.56 0 0 102.84 176.21 0 0 89.74 -288.22 0 0 -463.12 288.22 0 0 89.08 -176.21 0zm703.53 -89.08l0 89.08 -125.77 0 0 374.03 -112.67 0 0 -374.03 -124.46 0 0 -89.08 362.9 0zm267.26 -7.21c43.67,0 83.3,10.15 118.89,30.46 35.59,20.31 63.65,48.47 84.17,84.5 20.53,36.03 30.79,76.75 30.79,122.16 0,45.42 -10.37,86.25 -31.11,122.5 -20.74,36.25 -48.91,64.52 -84.5,84.83 -35.59,20.31 -75,30.46 -118.24,30.46 -43.23,0 -82.65,-10.15 -118.24,-30.46 -35.59,-20.31 -63.76,-48.58 -84.5,-84.83 -20.75,-36.25 -31.11,-77.08 -31.11,-122.5 0,-45.41 10.37,-86.14 31.11,-122.16 20.74,-36.03 48.91,-64.2 84.5,-84.5 35.59,-20.31 75,-30.46 118.24,-30.46zm0 104.15c-36.68,0 -65.83,11.9 -87.45,35.7 -21.61,23.8 -32.42,56.23 -32.42,97.27 0,40.61 10.81,72.93 32.42,96.95 21.62,24.02 50.77,36.03 87.45,36.03 36.25,0 65.29,-12.01 87.12,-36.03 21.83,-24.02 32.75,-56.33 32.75,-96.95 0,-40.61 -10.81,-72.93 -32.42,-96.95 -21.62,-24.02 -50.77,-36.03 -87.45,-36.03zm639.33 -101.53c58.95,0 107.76,15.51 146.4,46.51 38.64,31.01 63.65,72.93 75,125.77l-118.57 0c-8.74,-21.4 -22.16,-38.21 -40.29,-50.44 -18.12,-12.23 -39.63,-18.34 -64.52,-18.34 -32.75,0 -59.17,12.01 -79.26,36.03 -20.09,24.02 -30.13,56.12 -30.13,96.29 0,40.18 10.04,72.17 30.13,95.97 20.09,23.8 46.51,35.7 79.26,35.7 24.89,0 46.4,-6.11 64.52,-18.34 18.12,-12.23 31.55,-28.82 40.29,-49.78l118.57 0c-11.36,52.4 -36.36,94.22 -75,125.44 -38.65,31.22 -87.45,46.84 -146.4,46.84 -44.98,0 -84.5,-9.94 -118.57,-29.81 -34.06,-19.87 -60.37,-47.71 -78.93,-83.52 -18.56,-35.81 -27.84,-76.64 -27.84,-122.5 0,-45.85 9.28,-86.68 27.84,-122.49 18.56,-35.81 44.87,-63.65 78.93,-83.52 34.07,-19.87 73.59,-29.81 118.57,-29.81zm522.08 467.71l-100.22 -174.9 -25.55 0 0 174.9 -112.01 0 0 -463.12 191.27 0c36.68,0 67.69,6.33 93.01,19 25.33,12.66 44.33,30.02 56.99,52.08 12.67,22.05 19,47.27 19,75.66 0,33.62 -9.28,62.23 -27.84,85.81 -18.56,23.58 -45.52,39.74 -80.9,48.47l110.05 182.1 -123.81 0zm-125.77 -251.54l69.44 0c22.28,0 38.65,-4.91 49.13,-14.74 10.48,-9.82 15.72,-24.34 15.72,-43.56 0,-18.34 -5.35,-32.75 -16.05,-43.23 -10.7,-10.48 -26.97,-15.72 -48.8,-15.72l-69.44 0 0 117.26zm416.61 -122.5l0 96.95 156.56 0 0 84.5 -156.56 0 0 102.84 176.21 0 0 89.74 -288.22 0 0 -463.12 288.22 0 0 89.08 -176.21 0zm526.66 289.53l-173.59 0 -28.82 84.5 -117.91 0 169.66 -459.84 129.05 0 169.66 459.84 -119.22 0 -28.82 -84.5zm-28.82 -85.16l-57.65 -170.31 -58.3 170.31 115.94 0zm552.86 -293.46l0 89.08 -125.77 0 0 374.03 -112.67 0 0 -374.03 -124.46 0 0 -89.08 362.9 0zm159.18 89.08l0 96.95 156.56 0 0 84.5 -156.56 0 0 102.84 176.21 0 0 89.74 -288.22 0 0 -463.12 288.22 0 0 89.08 -176.21 0zm482.78 -89.08l0 463.12 -112.01 0 0 -463.12 112.01 0zm410.06 0l0 89.08 -125.77 0 0 374.03 -112.67 0 0 -374.03 -124.46 0 0 -89.08 362.9 0z"></path>
 </g>
<style data-made-with="vivus-instant">.DjVEspqR_0{stroke-dasharray:36865 36867;stroke-dashoffset:36866;animation:DjVEspqR_draw 23333ms linear 0ms forwards;}@keyframes DjVEspqR_draw{100%{stroke-dashoffset:0;}}@keyframes DjVEspqR_fade{0%{stroke-opacity:1;}98.9795918367347%{stroke-opacity:1;}100%{stroke-opacity:0;}}</style></svg>
