<?xml version="1.0" encoding="UTF-8"?>
<!DOCTYPE svg PUBLIC "-//W3C//DTD SVG 1.1//EN" "http://www.w3.org/Graphics/SVG/1.1/DTD/svg11.dtd">
<!-- Creator: CorelDRAW 2019 (64-Bit) -->
<svg xmlns="http://www.w3.org/2000/svg" xml:space="preserve" width="1.64413in" height="1.58711in" version="1.1" style="shape-rendering:geometricPrecision; text-rendering:geometricPrecision; image-rendering:optimizeQuality; fill-rule:evenodd; clip-rule:evenodd"
viewBox="0 0 52.39 50.57"
 xmlns:xlink="http://www.w3.org/1999/xlink">
 <defs>
  <style type="text/css">
   <![CDATA[
    .fil1 {fill:#3FA9F5}
    .fil2 {fill:white}
    .fil0 {fill:#3FA9F5;fill-rule:nonzero}
   ]]>
  </style>
 </defs>
 <g id="Layer_x0020_1">
  <metadata id="CorelCorpID_0Corel-Layer"/>
  <g id="_2066264074064">
   <path class="fil0" d="M30.26 15.12c0.43,0 0.8,0.11 1.11,0.32 0.3,0.21 0.52,0.5 0.65,0.85l0 -1.11 0.98 0 -0 4.76 -0.98 -0 0 -1.11c-0.13,0.35 -0.34,0.63 -0.65,0.85 -0.31,0.21 -0.67,0.32 -1.11,0.32 -0.41,-0 -0.78,-0.1 -1.11,-0.29 -0.33,-0.2 -0.58,-0.48 -0.76,-0.85 -0.18,-0.37 -0.28,-0.8 -0.28,-1.3 0,-0.5 0.09,-0.93 0.28,-1.3 0.18,-0.37 0.44,-0.65 0.76,-0.85 0.33,-0.2 0.7,-0.29 1.11,-0.29zm0.3 0.86c-0.44,-0 -0.79,0.14 -1.05,0.42 -0.26,0.28 -0.39,0.66 -0.39,1.15 -0,0.49 0.13,0.87 0.39,1.15 0.26,0.28 0.61,0.42 1.05,0.42 0.28,0 0.52,-0.06 0.74,-0.19 0.22,-0.13 0.39,-0.31 0.52,-0.55 0.13,-0.24 0.19,-0.51 0.19,-0.83 0,-0.31 -0.06,-0.59 -0.19,-0.83 -0.13,-0.24 -0.3,-0.42 -0.52,-0.55 -0.22,-0.13 -0.47,-0.19 -0.74,-0.19z"/>
   <path class="fil0" d="M42.53 17.34c-0,0.16 -0.01,0.3 -0.03,0.42l-3.66 -0c0.02,0.49 0.15,0.85 0.41,1.09 0.25,0.24 0.57,0.35 0.94,0.35 0.33,0 0.61,-0.08 0.83,-0.25 0.23,-0.17 0.37,-0.39 0.42,-0.66l1.05 0c-0.06,0.33 -0.2,0.63 -0.4,0.89 -0.2,0.26 -0.46,0.46 -0.79,0.61 -0.32,0.15 -0.68,0.22 -1.08,0.22 -0.46,-0 -0.87,-0.1 -1.22,-0.29 -0.35,-0.2 -0.63,-0.48 -0.83,-0.85 -0.2,-0.37 -0.3,-0.8 -0.3,-1.3 0,-0.5 0.1,-0.93 0.3,-1.3 0.2,-0.37 0.48,-0.65 0.83,-0.85 0.35,-0.2 0.76,-0.29 1.22,-0.29 0.47,0 0.87,0.1 1.22,0.29 0.35,0.19 0.62,0.46 0.8,0.8 0.19,0.34 0.28,0.71 0.28,1.13zm-0.99 -0.03c0.01,-0.31 -0.04,-0.57 -0.16,-0.78 -0.12,-0.21 -0.28,-0.37 -0.48,-0.47 -0.2,-0.1 -0.43,-0.15 -0.67,-0.15 -0.39,-0 -0.71,0.12 -0.97,0.35 -0.26,0.24 -0.4,0.58 -0.42,1.04l2.7 0z"/>
   <path class="fil1" d="M8.49 26.44l16.85 0.01 -0.01 16.85c-1.97,-0 -3.25,0.29 -5.52,0.29 0.97,-1.82 1.16,-1.86 1.16,-3.78 0,-1.65 -3.74,-3.65 -6.9,-1.09 -2.64,2.14 -1.61,3.93 -1.53,4.86 -1.82,-0 -2.61,-0.29 -4.07,-0.29 0.53,-1.1 0.29,-3.36 0.29,-4.94 -0.87,-0.58 -0.59,-0.87 -1.74,-0.87 -1.4,-0 -0.8,0.58 -2.61,0.58 -3.08,-0 -3.43,-4.94 0.29,-4.94 0.62,0 4.07,1.84 4.07,-1.16 0,-2.28 -0.29,-3.3 -0.29,-5.52zm7.48 -11.33c0.62,0 1.13,0.16 1.53,0.49 0.4,0.33 0.65,0.77 0.75,1.33l-1.05 -0c-0.06,-0.3 -0.2,-0.53 -0.42,-0.7 -0.22,-0.17 -0.5,-0.26 -0.83,-0.26 -0.38,-0 -0.7,0.13 -0.95,0.4 -0.25,0.27 -0.38,0.66 -0.38,1.18 -0,0.52 0.13,0.91 0.38,1.18 0.25,0.27 0.57,0.41 0.95,0.41 0.33,0 0.61,-0.09 0.83,-0.26 0.22,-0.17 0.36,-0.41 0.42,-0.71l1.05 0c-0.1,0.56 -0.35,1 -0.75,1.33 -0.4,0.33 -0.91,0.49 -1.53,0.49 -0.46,-0 -0.87,-0.1 -1.22,-0.29 -0.35,-0.2 -0.63,-0.48 -0.83,-0.85 -0.2,-0.37 -0.3,-0.8 -0.3,-1.3 0,-0.5 0.1,-0.93 0.3,-1.3 0.2,-0.37 0.48,-0.65 0.83,-0.85 0.35,-0.2 0.76,-0.29 1.22,-0.29zm4.21 1c0.16,-0.31 0.39,-0.56 0.69,-0.74 0.3,-0.18 0.65,-0.27 1.04,-0.27l-0 1.07 -0.29 -0c-0.43,-0 -0.78,0.1 -1.04,0.31 -0.26,0.21 -0.39,0.56 -0.39,1.04l-0 2.41 -0.98 -0 0 -4.76 0.98 0 -0 0.93zm6.88 1.22c-0,0.16 -0.01,0.3 -0.03,0.42l-3.66 -0c0.02,0.49 0.15,0.85 0.41,1.09 0.25,0.24 0.57,0.35 0.94,0.35 0.33,0 0.61,-0.08 0.83,-0.25 0.23,-0.17 0.37,-0.39 0.42,-0.66l1.05 0c-0.06,0.33 -0.2,0.63 -0.4,0.89 -0.2,0.26 -0.46,0.46 -0.79,0.61 -0.32,0.15 -0.68,0.22 -1.08,0.22 -0.46,-0 -0.87,-0.1 -1.22,-0.29 -0.35,-0.2 -0.63,-0.48 -0.83,-0.85 -0.2,-0.37 -0.3,-0.8 -0.3,-1.3 0,-0.5 0.1,-0.93 0.3,-1.3 0.2,-0.37 0.48,-0.65 0.83,-0.85 0.35,-0.2 0.76,-0.29 1.22,-0.29 0.47,0 0.87,0.1 1.22,0.29 0.35,0.19 0.62,0.46 0.8,0.8 0.19,0.34 0.28,0.71 0.28,1.13zm-0.99 -0.03c0.01,-0.31 -0.04,-0.57 -0.16,-0.78 -0.12,-0.21 -0.28,-0.37 -0.48,-0.47 -0.2,-0.1 -0.43,-0.15 -0.67,-0.15 -0.39,-0 -0.71,0.12 -0.97,0.35 -0.26,0.24 -0.4,0.58 -0.42,1.04l2.7 0zm5.37 -7.11c-0,4.37 9.58,4.63 9.59,-2.61l2.61 0c-0,2.95 -0.56,5.81 2.32,5.81 1.51,0 0.55,-0.58 2.91,-0.58 1.9,0 2.51,4.07 -0.58,4.07 -1.51,-0 -0.55,-0.58 -2.9,-0.58 -0.63,-0 -1.76,1.19 -1.74,1.45l0.35 6.39 -16.33 -0.01 0.01 -16.56c1.53,-0.03 2.92,-0.29 4.65,-0.29 -0.44,0.84 -0.87,1.62 -0.87,2.9zm-18.59 -4.08c-7.83,-0.5 -6.47,-0.9 -6.74,1.97 -0.63,6.76 1.02,3.84 3.83,3.84 3.63,0 4.01,5.81 -0.29,5.81 -1.82,-0 -1.16,-1.75 -3.78,-0 -0,4.7 0.86,9.1 0.86,13.94 -2.31,-1.11 -4.98,-0.56 -6.26,1.87 -1.76,3.35 1.55,8.22 6.25,5.97 -0,5.52 -1.26,6.04 5.23,6.13 4.37,0.06 1.63,-2.84 2.58,-4.68 0.44,-0.85 1.67,-1.44 2.93,-1.44 3.06,0 0.8,2.12 0.44,3.67 -1.08,4.65 9.6,1.28 16.11,1.28 -0.23,0.99 -3.78,6.1 2.03,6.1 4.08,0 4.61,-2.78 4.36,-5.81 1.34,0 5.05,0.54 5.55,0.04 0.01,-0.01 1.34,-5.76 0.03,-6.47 -0.96,-0.52 -1.52,0.62 -3.25,0.62 -3.84,-0 -4.3,-6.68 0.3,-6.68 1.53,0 2.69,1.5 3.34,0.17 0.34,-0.7 -0.35,-7.89 -0.43,-9.46 -0.08,-1.61 -0.29,-2.89 -0.29,-4.94 7.09,3.76 9.64,-7.25 2.33,-7.26 -1.26,-0 -0.9,0.46 -2.32,0.58 0,-6.38 0.55,-5.36 -2.69,-5.73 -5.38,-0.63 -3.99,0.52 -3.99,3.12 -0,2.87 -7.18,4.1 -5.24,0.01 2.9,-6.12 -2.39,-2.63 -15.09,-2.64 -0.4,-1.91 0.6,-1.9 1.01,-3.67 0.61,-2.6 -4.02,-3.53 -6.33,-0.78 -1.25,1.49 -0.49,2.36 -0.5,4.44z"/>
   <path class="fil0" d="M36.88 19.09l-0 0.86 -0.6 -0c-0.51,-0 -0.89,-0.12 -1.15,-0.37 -0.26,-0.25 -0.39,-0.65 -0.39,-1.22l0 -2.07 0.99 0 -0 2.09c-0,0.27 0.05,0.46 0.15,0.56 0.1,0.1 0.28,0.16 0.53,0.16l0.48 0zm-2.15 -3.07l-0.68 -0 0 -0.84 0.68 0 0 -1.18 0.99 0 -0 1.18 1.15 0 -0 0.84 -1.15 -0 -0.99 -0z"/>
   <polygon class="fil0" points="19.13,32 19.13,36.56 16.92,36.56 16.92,32 "/>
   <polygon class="fil0" points="20.99,29.96 20.99,31.69 15.06,31.68 15.06,29.95 "/>
   <polygon class="fil0" points="14.76,32 14.76,36.56 12.55,36.56 12.55,32 "/>
   <polygon class="fil0" points="14.75,29.95 14.75,31.68 12.54,31.68 12.54,29.95 "/>
  </g>
  <path class="fil2" d="M27.66 24.13l16.33 0.01 -0.35 -6.39c-0.02,-0.26 1.11,-1.45 1.74,-1.45 2.35,0 1.4,0.58 2.9,0.58 3.09,0 2.48,-4.06 0.58,-4.07 -2.35,-0 -1.4,0.58 -2.91,0.58 -2.88,-0 -2.32,-2.86 -2.32,-5.81l-2.61 -0c-0.01,7.24 -9.59,6.98 -9.59,2.61 0,-1.28 0.43,-2.07 0.87,-2.9 -1.73,-0 -3.12,0.25 -4.65,0.29l-0.01 16.56zm8.61 -4.19c-0.51,-0 -0.89,-0.12 -1.15,-0.37 -0.26,-0.25 -0.39,-0.65 -0.39,-1.22l0 -2.07 0.99 0 -0 2.09c-0,0.27 0.05,0.46 0.15,0.56 0.1,0.1 0.28,0.16 0.53,0.16l0.48 0 -0 0.86 -0.6 -0zm-1.54 -3.92l-0.68 -0 0 -0.84 0.68 0 0 -1.18 0.99 0 -0 1.18 1.15 0 -0 0.84 -1.15 -0 -0.99 -0zm4.27 3.69c-0.35,-0.2 -0.63,-0.48 -0.83,-0.85 -0.2,-0.37 -0.3,-0.8 -0.3,-1.3 0,-0.5 0.1,-0.93 0.3,-1.3 0.2,-0.37 0.48,-0.65 0.83,-0.85 0.35,-0.2 0.76,-0.29 1.22,-0.29 0.47,0 0.87,0.1 1.22,0.29 0.35,0.19 0.62,0.46 0.8,0.8 0.19,0.34 0.28,0.71 0.28,1.13 -0,0.16 -0.01,0.3 -0.03,0.42l-3.66 -0c0.02,0.49 0.15,0.85 0.41,1.09 0.25,0.24 0.57,0.35 0.94,0.35 0.33,0 0.61,-0.08 0.83,-0.25 0.23,-0.17 0.37,-0.39 0.42,-0.66l1.05 0c-0.06,0.33 -0.2,0.63 -0.4,0.89 -0.2,0.26 -0.46,0.46 -0.79,0.61 -0.32,0.15 -0.68,0.22 -1.08,0.22 -0.46,-0 -0.87,-0.1 -1.22,-0.29zm-6 -4.53l-0 4.76 -0.98 -0 0 -1.11c-0.13,0.35 -0.34,0.63 -0.65,0.85 -0.31,0.21 -0.67,0.32 -1.11,0.32 -0.41,-0 -0.78,-0.1 -1.11,-0.29 -0.33,-0.2 -0.58,-0.48 -0.76,-0.85 -0.18,-0.37 -0.28,-0.8 -0.28,-1.3 0,-0.5 0.09,-0.93 0.28,-1.3 0.18,-0.37 0.44,-0.65 0.76,-0.85 0.33,-0.2 0.7,-0.29 1.11,-0.29 0.43,0 0.8,0.11 1.11,0.32 0.3,0.21 0.52,0.5 0.65,0.85l0 -1.11 0.98 0z"/>
  <path class="fil2" d="M31.3 18.94c0.22,-0.13 0.39,-0.31 0.52,-0.55 0.13,-0.24 0.19,-0.51 0.19,-0.83 0,-0.31 -0.06,-0.59 -0.19,-0.83 -0.13,-0.24 -0.3,-0.42 -0.52,-0.55 -0.22,-0.13 -0.47,-0.19 -0.74,-0.19 -0.44,-0 -0.79,0.14 -1.05,0.42 -0.26,0.28 -0.39,0.66 -0.39,1.15 -0,0.49 0.13,0.87 0.39,1.15 0.26,0.28 0.61,0.42 1.05,0.42 0.28,0 0.52,-0.06 0.74,-0.19z"/>
  <path class="fil2" d="M39.25 16.27c-0.26,0.24 -0.4,0.58 -0.42,1.04l2.7 0c0.01,-0.31 -0.04,-0.57 -0.16,-0.78 -0.12,-0.21 -0.28,-0.37 -0.48,-0.47 -0.2,-0.1 -0.43,-0.15 -0.67,-0.15 -0.39,-0 -0.71,0.12 -0.97,0.35z"/>
  <path class="fil2" d="M25.33 26.46l-16.85 -0.01c-0,2.22 0.29,3.24 0.29,5.52 -0,3 -3.45,1.16 -4.07,1.16 -3.73,-0 -3.38,4.94 -0.29,4.94 1.82,0 1.22,-0.58 2.61,-0.58 1.15,0 0.87,0.29 1.74,0.87 -0,1.58 0.24,3.84 -0.29,4.94 1.45,0 2.24,0.29 4.07,0.29 -0.08,-0.94 -1.11,-2.73 1.53,-4.86 3.16,-2.55 6.9,-0.55 6.9,1.09 -0,1.92 -0.2,1.95 -1.16,3.78 2.27,0 3.55,-0.29 5.52,-0.29l0.01 -16.85zm-10.27 3.5l5.93 0 -0 1.73 -5.93 -0 0 -1.73zm-0.3 2.05l-0 4.56 -2.21 -0 0 -4.56 2.21 0zm2.16 0l2.21 0 -0 4.56 -2.21 -0 0 -4.56zm-2.17 -2.05l-0 1.73 -2.21 -0 0 -1.73 2.21 0z"/>
  <path class="fil2" d="M15.97 19.99c0.62,0 1.13,-0.16 1.53,-0.49 0.4,-0.33 0.65,-0.77 0.75,-1.33l-1.05 -0c-0.06,0.3 -0.2,0.54 -0.42,0.71 -0.22,0.17 -0.5,0.26 -0.83,0.26 -0.38,-0 -0.7,-0.14 -0.95,-0.41 -0.25,-0.27 -0.38,-0.67 -0.38,-1.18 0,-0.52 0.13,-0.91 0.38,-1.18 0.25,-0.27 0.57,-0.4 0.95,-0.4 0.33,0 0.61,0.09 0.83,0.26 0.22,0.17 0.36,0.4 0.42,0.7l1.05 0c-0.1,-0.56 -0.35,-1 -0.75,-1.33 -0.4,-0.33 -0.91,-0.49 -1.53,-0.49 -0.46,-0 -0.87,0.1 -1.22,0.29 -0.35,0.2 -0.63,0.48 -0.83,0.85 -0.2,0.37 -0.3,0.8 -0.3,1.3 -0,0.5 0.1,0.94 0.3,1.3 0.2,0.37 0.48,0.65 0.83,0.85 0.35,0.2 0.76,0.29 1.22,0.29z"/>
  <path class="fil2" d="M19.2 15.17l-0 4.76 0.98 0 0 -2.41c0,-0.48 0.13,-0.83 0.39,-1.04 0.26,-0.21 0.61,-0.31 1.04,-0.31l0.29 0 0 -1.07c-0.39,-0 -0.74,0.09 -1.04,0.27 -0.3,0.18 -0.53,0.43 -0.69,0.74l0 -0.93 -0.98 -0z"/>
  <path class="fil2" d="M22.4 17.55c-0,0.5 0.1,0.94 0.3,1.3 0.2,0.37 0.48,0.65 0.83,0.85 0.35,0.2 0.76,0.29 1.22,0.29 0.4,0 0.76,-0.07 1.08,-0.22 0.32,-0.15 0.58,-0.35 0.79,-0.61 0.2,-0.26 0.33,-0.56 0.4,-0.89l-1.05 -0c-0.05,0.28 -0.19,0.5 -0.42,0.66 -0.23,0.17 -0.51,0.25 -0.83,0.25 -0.37,-0 -0.69,-0.12 -0.94,-0.35 -0.25,-0.24 -0.39,-0.6 -0.41,-1.09l3.66 0c0.02,-0.12 0.03,-0.26 0.03,-0.42 0,-0.41 -0.09,-0.79 -0.28,-1.13 -0.19,-0.34 -0.45,-0.6 -0.8,-0.8 -0.35,-0.19 -0.76,-0.29 -1.22,-0.29 -0.46,-0 -0.87,0.1 -1.22,0.29 -0.35,0.2 -0.63,0.48 -0.83,0.85 -0.2,0.37 -0.3,0.8 -0.3,1.3zm3.67 -0.25l-2.7 -0c0.02,-0.46 0.16,-0.81 0.42,-1.04 0.26,-0.24 0.58,-0.35 0.97,-0.35 0.24,0 0.47,0.05 0.67,0.15 0.2,0.1 0.37,0.26 0.48,0.47 0.12,0.21 0.17,0.47 0.16,0.78z"/>
 </g>
</svg>
